<?xml version="1.0" encoding="UTF-8" standalone="no"?>
<!-- Created with Inkscape (http://www.inkscape.org/) -->

<svg
   version="1.1"
   id="svg560"
   width="348.57202"
   height="221.25874"
   viewBox="0 0 348.57202 221.25874"
   sodipodi:docname="fig8.svg"
   inkscape:version="1.2.1 (9c6d41e410, 2022-07-14, custom)"
   xmlns:inkscape="http://www.inkscape.org/namespaces/inkscape"
   xmlns:sodipodi="http://sodipodi.sourceforge.net/DTD/sodipodi-0.dtd"
   xmlns="http://www.w3.org/2000/svg"
   xmlns:svg="http://www.w3.org/2000/svg">
  <defs
     id="defs564">
    <rect
       x="181.9268"
       y="-18.444628"
       width="246.04962"
       height="70.904251"
       id="rect408794" />
    <marker
       style="overflow:visible"
       id="marker408748"
       refX="0"
       refY="0"
       orient="auto-start-reverse"
       inkscape:stockid="Arrow5"
       markerWidth="5.8874264"
       markerHeight="6.6094756"
       viewBox="0 0 5.8874262 6.6094758"
       inkscape:isstock="true"
       inkscape:collect="always"
       preserveAspectRatio="xMidYMid">
      <path
         transform="scale(0.5)"
         style="fill:context-stroke;fill-rule:evenodd;stroke:context-stroke;stroke-width:1pt"
         d="m 6,0 c -3,1 -7,3 -9,5 0,0 0,-4 2,-5 -2,-1 -2,-5 -2,-5 2,2 6,4 9,5 z"
         id="path408746" />
    </marker>
    <rect
       x="103.08243"
       y="-152.95972"
       width="282.26971"
       height="110.88333"
       id="rect408685" />
    <rect
       x="-36.920692"
       y="-180.79956"
       width="393.40005"
       height="96.543495"
       id="rect408621" />
    <marker
       style="overflow:visible"
       id="Arrow5"
       refX="0"
       refY="0"
       orient="auto-start-reverse"
       inkscape:stockid="Arrow5"
       markerWidth="5.8874259"
       markerHeight="6.6094756"
       viewBox="0 0 5.8874262 6.6094758"
       inkscape:isstock="true"
       inkscape:collect="always"
       preserveAspectRatio="xMidYMid">
      <path
         transform="scale(0.5)"
         style="fill:context-stroke;fill-rule:evenodd;stroke:context-stroke;stroke-width:1pt"
         d="m 6,0 c -3,1 -7,3 -9,5 0,0 0,-4 2,-5 -2,-1 -2,-5 -2,-5 2,2 6,4 9,5 z"
         id="path8893" />
    </marker>
    <clipPath
       clipPathUnits="userSpaceOnUse"
       id="clipPath736">
      <path
         d="M 7,365 H 297 V 624 H 7 Z"
         id="path734" />
    </clipPath>
    <clipPath
       clipPathUnits="userSpaceOnUse"
       id="clipPath746">
      <path
         d="M 0,0 H 792 V 675 H 0 Z"
         id="path744" />
    </clipPath>
    <clipPath
       clipPathUnits="userSpaceOnUse"
       id="clipPath756">
      <path
         d="M 7,365 H 297 V 624 H 7 Z"
         id="path754" />
    </clipPath>
    <clipPath
       clipPathUnits="userSpaceOnUse"
       id="clipPath762">
      <path
         d="m 80.543,623.199 7.562,-2.281 7.618,-2.039 6.422,-1.563 6.898,-1.5 8.16,-1.558 7.383,-1.199 9.059,-1.262 10.738,-1.078 8.222,-0.539 7.079,-0.301 7.019,-0.121 9.961,0.058 9.539,0.422 8.699,0.66 8.703,0.899 9.84,1.32 8.16,1.379 8.161,1.621 5.699,1.262 3.18,0.777 58.019,-237.597 -10.32,-2.461 -14.16,-2.942 -11.161,-2.039 -12,-1.98 -11.281,-1.559 -11.277,-1.32 -9.84,-0.961 -7.563,-0.66 -11.339,-0.719 -11.34,-0.48 -11.399,-0.239 h -0.781 l -9.058,-0.062 -0.782,0.062 h -4.558 l -0.782,0.059 h -2.281 l -0.719,0.058 h -1.5 l -0.781,0.063 h -1.5 l -0.777,0.059 h -0.781 l -0.719,0.058 h -0.781 l -0.782,0.063 h -0.718 l -0.782,0.058 h -0.777 l -0.723,0.063 h -0.777 l -0.723,0.058 h -0.777 l -0.781,0.059 -0.719,0.062 h -0.781 l -0.782,0.059 -0.718,0.059 h -0.782 l -0.718,0.062 -0.782,0.059 h -0.777 l -0.723,0.058 -0.777,0.063 -0.781,0.058 -0.719,0.063 h -0.781 l -0.719,0.058 -0.781,0.059 -0.781,0.063 -0.719,0.058 -0.781,0.059 -0.719,0.062 -0.781,0.059 -0.778,0.058 -0.722,0.063 -0.778,0.059 -0.722,0.058 -0.778,0.063 -0.781,0.058 -0.719,0.063 -0.781,0.058 -0.719,0.059 -0.781,0.062 -0.781,0.118 -0.719,0.062 -0.781,0.059 -0.719,0.058 -0.781,0.063 -0.778,0.121 -0.722,0.058 -0.778,0.059 -0.722,0.063 -0.778,0.117 -0.722,0.062 -0.778,0.059 -0.781,0.121 -0.719,0.059 -0.781,0.121 -0.719,0.058 -0.781,0.063 -0.719,0.117 -0.781,0.062 -0.781,0.118 -0.719,0.062 -0.781,0.117 -0.719,0.063 -0.781,0.121 -0.719,0.117 -0.781,0.063 -0.719,0.117 -0.781,0.062 -0.719,0.117 -0.781,0.122 -0.777,0.058 -0.723,0.121 -0.777,0.121 -0.723,0.121 -0.777,0.059 -0.723,0.121 -0.777,0.117 -0.723,0.121 -0.777,0.121 -0.723,0.059 -0.777,0.121 -0.723,0.121 -0.777,0.117 -0.723,0.122 -0.777,0.121 -0.723,0.121 -0.777,0.117 -0.723,0.121 -0.777,0.121 -0.723,0.117 -0.777,0.121 -0.723,0.121 -0.777,0.122 -0.723,0.117 -0.777,0.121 -0.723,0.121 -0.719,0.18 -0.781,0.121 -0.719,0.117 -0.781,0.121 -0.719,0.121 -0.781,0.18 -0.719,0.121 -0.781,0.117 -0.719,0.121 -0.719,0.18 -0.781,0.121 -0.719,0.117 -0.781,0.184 -0.719,0.117 -0.781,0.121 -0.719,0.18 -0.722,0.121 -0.778,0.179 -0.722,0.122 -0.778,0.179 -0.722,0.117 -0.719,0.18 -0.781,0.121 -0.719,0.18 -0.781,0.121 -0.719,0.18 -0.719,0.121 -0.781,0.179 -0.719,0.18 -0.722,0.121 -0.778,0.18 -0.722,0.18 -0.778,0.121 -0.722,0.179 -0.719,0.18 -0.781,0.18 -0.719,0.121 -0.719,0.18 -0.781,0.179 -0.719,0.18 -0.723,0.18 -0.777,0.121 -0.723,0.179 -1.437,0.36 -0.781,0.179 -0.719,0.18 -0.723,0.18 -0.777,0.18 -0.723,0.179 -1.437,0.36 -0.781,0.179 -0.719,0.184 -0.723,0.18 -0.777,0.179 -0.723,0.18 -0.719,0.238 -0.718,0.18 -0.782,0.18 -0.718,0.179 -0.719,0.184 -0.723,0.18 -0.718,0.238 -0.782,0.18 -0.718,0.179 -0.723,0.242 -0.719,0.18 -0.781,0.18 -0.719,0.179 -0.719,0.239 -0.718,0.179 -0.723,0.243 -0.719,0.179 -0.781,0.18 -0.719,0.238 -0.719,0.184 -0.722,0.238 -0.719,0.18 -0.719,0.238 -0.781,0.184 -0.719,0.238 -0.722,0.18 -0.719,0.242 -0.719,0.238 -0.723,0.18 -0.718,0.238 -0.719,0.242 -0.723,0.18 -0.777,0.238 -0.723,0.242 -0.718,0.18 -0.719,0.238 -0.723,0.243 -0.719,0.238 z"
         id="path760" />
    </clipPath>
    <clipPath
       clipPathUnits="userSpaceOnUse"
       id="clipPath772">
      <path
         d="M 0,0 H 792 V 675 H 0 Z"
         id="path770" />
    </clipPath>
    <clipPath
       clipPathUnits="userSpaceOnUse"
       id="clipPath784">
      <path
         d="M 0,0 H 792 V 675 H 0 Z"
         id="path782" />
    </clipPath>
    <clipPath
       clipPathUnits="userSpaceOnUse"
       id="clipPath794">
      <path
         d="M 1,354 H 303 V 634.715 H 1 Z"
         id="path792" />
    </clipPath>
    <clipPath
       clipPathUnits="userSpaceOnUse"
       id="clipPath804">
      <path
         d="M 0,0 H 792 V 675 H 0 Z"
         id="path802" />
    </clipPath>
    <clipPath
       clipPathUnits="userSpaceOnUse"
       id="clipPath814">
      <path
         d="M 1,354 H 303 V 634.715 H 1 Z"
         id="path812" />
    </clipPath>
    <clipPath
       clipPathUnits="userSpaceOnUse"
       id="clipPath960">
      <path
         d="M 7,365 H 297 V 624 H 7 Z"
         id="path958" />
    </clipPath>
    <clipPath
       clipPathUnits="userSpaceOnUse"
       id="clipPath970">
      <path
         d="M 0,0 H 792 V 675 H 0 Z"
         id="path968" />
    </clipPath>
    <clipPath
       clipPathUnits="userSpaceOnUse"
       id="clipPath980">
      <path
         d="M 7,365 H 297 V 624 H 7 Z"
         id="path978" />
    </clipPath>
    <clipPath
       clipPathUnits="userSpaceOnUse"
       id="clipPath986">
      <path
         d="m 80.543,623.199 7.562,-2.281 7.618,-2.039 6.422,-1.563 6.898,-1.5 8.16,-1.558 7.383,-1.199 9.059,-1.262 10.738,-1.078 8.222,-0.539 7.079,-0.301 7.019,-0.121 9.961,0.058 9.539,0.422 8.699,0.66 8.703,0.899 9.84,1.32 8.16,1.379 8.161,1.621 5.699,1.262 3.18,0.777 58.019,-237.597 -10.32,-2.461 -14.16,-2.942 -11.161,-2.039 -12,-1.98 -11.281,-1.559 -11.277,-1.32 -9.84,-0.961 -7.563,-0.66 -11.339,-0.719 -11.34,-0.48 -11.399,-0.239 h -0.781 l -9.058,-0.062 -0.782,0.062 h -4.558 l -0.782,0.059 h -2.281 l -0.719,0.058 h -1.5 l -0.781,0.063 h -1.5 l -0.777,0.059 h -0.781 l -0.719,0.058 h -0.781 l -0.782,0.063 h -0.718 l -0.782,0.058 h -0.777 l -0.723,0.063 h -0.777 l -0.723,0.058 h -0.777 l -0.781,0.059 -0.719,0.062 h -0.781 l -0.782,0.059 -0.718,0.059 h -0.782 l -0.718,0.062 -0.782,0.059 h -0.777 l -0.723,0.058 -0.777,0.063 -0.781,0.058 -0.719,0.063 h -0.781 l -0.719,0.058 -0.781,0.059 -0.781,0.063 -0.719,0.058 -0.781,0.059 -0.719,0.062 -0.781,0.059 -0.778,0.058 -0.722,0.063 -0.778,0.059 -0.722,0.058 -0.778,0.063 -0.781,0.058 -0.719,0.063 -0.781,0.058 -0.719,0.059 -0.781,0.062 -0.781,0.118 -0.719,0.062 -0.781,0.059 -0.719,0.058 -0.781,0.063 -0.778,0.121 -0.722,0.058 -0.778,0.059 -0.722,0.063 -0.778,0.117 -0.722,0.062 -0.778,0.059 -0.781,0.121 -0.719,0.059 -0.781,0.121 -0.719,0.058 -0.781,0.063 -0.719,0.117 -0.781,0.062 -0.781,0.118 -0.719,0.062 -0.781,0.117 -0.719,0.063 -0.781,0.121 -0.719,0.117 -0.781,0.063 -0.719,0.117 -0.781,0.062 -0.719,0.117 -0.781,0.122 -0.777,0.058 -0.723,0.121 -0.777,0.121 -0.723,0.121 -0.777,0.059 -0.723,0.121 -0.777,0.117 -0.723,0.121 -0.777,0.121 -0.723,0.059 -0.777,0.121 -0.723,0.121 -0.777,0.117 -0.723,0.122 -0.777,0.121 -0.723,0.121 -0.777,0.117 -0.723,0.121 -0.777,0.121 -0.723,0.117 -0.777,0.121 -0.723,0.121 -0.777,0.122 -0.723,0.117 -0.777,0.121 -0.723,0.121 -0.719,0.18 -0.781,0.121 -0.719,0.117 -0.781,0.121 -0.719,0.121 -0.781,0.18 -0.719,0.121 -0.781,0.117 -0.719,0.121 -0.719,0.18 -0.781,0.121 -0.719,0.117 -0.781,0.184 -0.719,0.117 -0.781,0.121 -0.719,0.18 -0.722,0.121 -0.778,0.179 -0.722,0.122 -0.778,0.179 -0.722,0.117 -0.719,0.18 -0.781,0.121 -0.719,0.18 -0.781,0.121 -0.719,0.18 -0.719,0.121 -0.781,0.179 -0.719,0.18 -0.722,0.121 -0.778,0.18 -0.722,0.18 -0.778,0.121 -0.722,0.179 -0.719,0.18 -0.781,0.18 -0.719,0.121 -0.719,0.18 -0.781,0.179 -0.719,0.18 -0.723,0.18 -0.777,0.121 -0.723,0.179 -1.437,0.36 -0.781,0.179 -0.719,0.18 -0.723,0.18 -0.777,0.18 -0.723,0.179 -1.437,0.36 -0.781,0.179 -0.719,0.184 -0.723,0.18 -0.777,0.179 -0.723,0.18 -0.719,0.238 -0.718,0.18 -0.782,0.18 -0.718,0.179 -0.719,0.184 -0.723,0.18 -0.718,0.238 -0.782,0.18 -0.718,0.179 -0.723,0.242 -0.719,0.18 -0.781,0.18 -0.719,0.179 -0.719,0.239 -0.718,0.179 -0.723,0.243 -0.719,0.179 -0.781,0.18 -0.719,0.238 -0.719,0.184 -0.722,0.238 -0.719,0.18 -0.719,0.238 -0.781,0.184 -0.719,0.238 -0.722,0.18 -0.719,0.242 -0.719,0.238 -0.723,0.18 -0.718,0.238 -0.719,0.242 -0.723,0.18 -0.777,0.238 -0.723,0.242 -0.718,0.18 -0.719,0.238 -0.723,0.243 -0.719,0.238 z"
         id="path984" />
    </clipPath>
    <clipPath
       clipPathUnits="userSpaceOnUse"
       id="clipPath996">
      <path
         d="M 0,0 H 792 V 675 H 0 Z"
         id="path994" />
    </clipPath>
    <clipPath
       clipPathUnits="userSpaceOnUse"
       id="clipPath1008">
      <path
         d="M 0,0 H 792 V 675 H 0 Z"
         id="path1006" />
    </clipPath>
    <clipPath
       clipPathUnits="userSpaceOnUse"
       id="clipPath1328">
      <path
         d="M 7,365 H 297 V 624 H 7 Z"
         id="path1326" />
    </clipPath>
    <clipPath
       clipPathUnits="userSpaceOnUse"
       id="clipPath1338">
      <path
         d="M 0,0 H 792 V 675 H 0 Z"
         id="path1336" />
    </clipPath>
    <clipPath
       clipPathUnits="userSpaceOnUse"
       id="clipPath1348">
      <path
         d="M 7,365 H 297 V 624 H 7 Z"
         id="path1346" />
    </clipPath>
    <clipPath
       clipPathUnits="userSpaceOnUse"
       id="clipPath1354">
      <path
         d="m 80.543,623.199 7.562,-2.281 7.618,-2.039 6.422,-1.563 6.898,-1.5 8.16,-1.558 7.383,-1.199 9.059,-1.262 10.738,-1.078 8.222,-0.539 7.079,-0.301 7.019,-0.121 9.961,0.058 9.539,0.422 8.699,0.66 8.703,0.899 9.84,1.32 8.16,1.379 8.161,1.621 5.699,1.262 3.18,0.777 58.019,-237.597 -10.32,-2.461 -14.16,-2.942 -11.161,-2.039 -12,-1.98 -11.281,-1.559 -11.277,-1.32 -9.84,-0.961 -7.563,-0.66 -11.339,-0.719 -11.34,-0.48 -11.399,-0.239 h -0.781 l -9.058,-0.062 -0.782,0.062 h -4.558 l -0.782,0.059 h -2.281 l -0.719,0.058 h -1.5 l -0.781,0.063 h -1.5 l -0.777,0.059 h -0.781 l -0.719,0.058 h -0.781 l -0.782,0.063 h -0.718 l -0.782,0.058 h -0.777 l -0.723,0.063 h -0.777 l -0.723,0.058 h -0.777 l -0.781,0.059 -0.719,0.062 h -0.781 l -0.782,0.059 -0.718,0.059 h -0.782 l -0.718,0.062 -0.782,0.059 h -0.777 l -0.723,0.058 -0.777,0.063 -0.781,0.058 -0.719,0.063 h -0.781 l -0.719,0.058 -0.781,0.059 -0.781,0.063 -0.719,0.058 -0.781,0.059 -0.719,0.062 -0.781,0.059 -0.778,0.058 -0.722,0.063 -0.778,0.059 -0.722,0.058 -0.778,0.063 -0.781,0.058 -0.719,0.063 -0.781,0.058 -0.719,0.059 -0.781,0.062 -0.781,0.118 -0.719,0.062 -0.781,0.059 -0.719,0.058 -0.781,0.063 -0.778,0.121 -0.722,0.058 -0.778,0.059 -0.722,0.063 -0.778,0.117 -0.722,0.062 -0.778,0.059 -0.781,0.121 -0.719,0.059 -0.781,0.121 -0.719,0.058 -0.781,0.063 -0.719,0.117 -0.781,0.062 -0.781,0.118 -0.719,0.062 -0.781,0.117 -0.719,0.063 -0.781,0.121 -0.719,0.117 -0.781,0.063 -0.719,0.117 -0.781,0.062 -0.719,0.117 -0.781,0.122 -0.777,0.058 -0.723,0.121 -0.777,0.121 -0.723,0.121 -0.777,0.059 -0.723,0.121 -0.777,0.117 -0.723,0.121 -0.777,0.121 -0.723,0.059 -0.777,0.121 -0.723,0.121 -0.777,0.117 -0.723,0.122 -0.777,0.121 -0.723,0.121 -0.777,0.117 -0.723,0.121 -0.777,0.121 -0.723,0.117 -0.777,0.121 -0.723,0.121 -0.777,0.122 -0.723,0.117 -0.777,0.121 -0.723,0.121 -0.719,0.18 -0.781,0.121 -0.719,0.117 -0.781,0.121 -0.719,0.121 -0.781,0.18 -0.719,0.121 -0.781,0.117 -0.719,0.121 -0.719,0.18 -0.781,0.121 -0.719,0.117 -0.781,0.184 -0.719,0.117 -0.781,0.121 -0.719,0.18 -0.722,0.121 -0.778,0.179 -0.722,0.122 -0.778,0.179 -0.722,0.117 -0.719,0.18 -0.781,0.121 -0.719,0.18 -0.781,0.121 -0.719,0.18 -0.719,0.121 -0.781,0.179 -0.719,0.18 -0.722,0.121 -0.778,0.18 -0.722,0.18 -0.778,0.121 -0.722,0.179 -0.719,0.18 -0.781,0.18 -0.719,0.121 -0.719,0.18 -0.781,0.179 -0.719,0.18 -0.723,0.18 -0.777,0.121 -0.723,0.179 -1.437,0.36 -0.781,0.179 -0.719,0.18 -0.723,0.18 -0.777,0.18 -0.723,0.179 -1.437,0.36 -0.781,0.179 -0.719,0.184 -0.723,0.18 -0.777,0.179 -0.723,0.18 -0.719,0.238 -0.718,0.18 -0.782,0.18 -0.718,0.179 -0.719,0.184 -0.723,0.18 -0.718,0.238 -0.782,0.18 -0.718,0.179 -0.723,0.242 -0.719,0.18 -0.781,0.18 -0.719,0.179 -0.719,0.239 -0.718,0.179 -0.723,0.243 -0.719,0.179 -0.781,0.18 -0.719,0.238 -0.719,0.184 -0.722,0.238 -0.719,0.18 -0.719,0.238 -0.781,0.184 -0.719,0.238 -0.722,0.18 -0.719,0.242 -0.719,0.238 -0.723,0.18 -0.718,0.238 -0.719,0.242 -0.723,0.18 -0.777,0.238 -0.723,0.242 -0.718,0.18 -0.719,0.238 -0.723,0.243 -0.719,0.238 z"
         id="path1352" />
    </clipPath>
    <clipPath
       clipPathUnits="userSpaceOnUse"
       id="clipPath1364">
      <path
         d="M 0,0 H 792 V 675 H 0 Z"
         id="path1362" />
    </clipPath>
    <clipPath
       clipPathUnits="userSpaceOnUse"
       id="clipPath1376">
      <path
         d="M 0,0 H 792 V 675 H 0 Z"
         id="path1374" />
    </clipPath>
    <clipPath
       clipPathUnits="userSpaceOnUse"
       id="clipPath2386">
      <path
         d="M 7,34 H 303 V 298 H 7 Z"
         id="path2384" />
    </clipPath>
    <clipPath
       clipPathUnits="userSpaceOnUse"
       id="clipPath2396">
      <path
         d="M 0,0 H 792 V 675 H 0 Z"
         id="path2394" />
    </clipPath>
    <clipPath
       clipPathUnits="userSpaceOnUse"
       id="clipPath2406">
      <path
         d="M 7,34 H 303 V 298 H 7 Z"
         id="path2404" />
    </clipPath>
    <clipPath
       clipPathUnits="userSpaceOnUse"
       id="clipPath2412">
      <path
         d="m 81.984,297.398 8.758,-2.582 5.223,-1.437 7.258,-1.801 9.722,-2.101 8.578,-1.559 8.219,-1.32 10.32,-1.258 7.864,-0.723 7.078,-0.48 8.699,-0.36 9.539,-0.121 7.5,0.121 11.223,0.539 7.859,0.661 7.86,0.839 8.64,1.141 7.738,1.262 6.961,1.32 9.36,2.039 2.82,0.66 59.102,-242.281 -11.102,-2.578 -9.66,-2.039 -11.16,-2.16 -11.219,-1.922 -9.781,-1.5 -12.059,-1.559 -12.84,-1.383 -16.679,-1.378 -13.621,-0.719 -14.461,-0.36 -13.68,-0.062 -0.719,0.062 h -3.058 l -0.782,0.059 h -2.281 l -0.719,0.059 h -1.558 l -0.723,0.062 h -1.558 l -0.719,0.059 h -0.781 l -0.782,0.058 h -0.718 l -0.782,0.063 h -0.777 l -0.723,0.058 h -0.777 l -0.781,0.063 h -0.719 l -0.781,0.058 h -0.782 l -0.718,0.059 -0.782,0.063 h -0.718 l -1.563,0.117 h -0.719 l -0.781,0.062 -0.777,0.059 -0.723,0.058 h -0.777 l -0.781,0.063 -0.719,0.059 -0.781,0.058 -0.782,0.063 h -0.718 l -0.782,0.058 -0.718,0.063 -0.782,0.058 -0.777,0.059 -0.723,0.062 -0.777,0.059 -0.781,0.059 -0.719,0.062 -0.781,0.059 -0.719,0.058 -0.781,0.063 -0.782,0.058 -0.718,0.063 -0.782,0.058 -0.777,0.059 -0.723,0.063 -0.777,0.117 -0.723,0.062 -0.777,0.059 -0.781,0.058 -0.719,0.063 -0.781,0.117 -0.719,0.063 -0.781,0.058 -0.781,0.121 -0.719,0.059 -0.781,0.062 -0.719,0.059 -0.781,0.121 -0.778,0.059 -0.722,0.121 -0.778,0.058 -0.722,0.063 -0.778,0.117 -0.722,0.063 -0.778,0.117 -0.781,0.062 -0.719,0.117 -0.781,0.063 -0.719,0.117 -0.781,0.121 -0.719,0.063 -0.781,0.117 -0.781,0.062 -0.719,0.118 -0.781,0.121 -0.719,0.058 -0.781,0.121 -0.719,0.121 -0.781,0.059 -0.719,0.121 -0.781,0.121 -0.719,0.117 -0.781,0.122 -0.778,0.058 -0.722,0.121 -0.778,0.121 -0.722,0.121 -0.778,0.118 -0.722,0.121 -0.778,0.121 -0.722,0.121 -0.778,0.117 -0.722,0.063 -0.778,0.117 -0.722,0.121 -0.778,0.18 -0.722,0.121 -0.778,0.121 -0.722,0.117 -0.778,0.121 -0.722,0.121 -0.778,0.117 -0.722,0.121 -0.778,0.121 -0.722,0.122 -0.778,0.179 -0.722,0.117 -0.778,0.122 -0.722,0.121 -0.719,0.179 -0.781,0.121 -0.719,0.118 -0.781,0.179 -0.719,0.121 -0.781,0.121 -0.719,0.18 -0.781,0.121 -0.719,0.117 -0.719,0.18 -0.781,0.121 -0.719,0.18 -0.781,0.121 -0.719,0.18 -0.781,0.121 -0.719,0.179 -0.722,0.122 -0.778,0.179 -0.722,0.117 -0.778,0.18 -0.722,0.121 -0.719,0.18 -0.781,0.18 -0.719,0.121 -0.719,0.179 -0.781,0.18 -0.719,0.121 -0.781,0.18 -0.719,0.18 -0.723,0.179 -0.777,0.121 -0.723,0.18 -0.718,0.18 -0.782,0.179 -1.437,0.36 -0.781,0.121 -0.719,0.18 -0.723,0.179 -0.777,0.18 -0.723,0.18 -0.718,0.179 -0.782,0.184 -1.437,0.359 -0.781,0.18 -0.719,0.18 -0.723,0.179 -0.719,0.18 -0.781,0.18 -0.719,0.242 -1.437,0.359 -0.781,0.18 -0.719,0.18 -0.723,0.179 -0.718,0.239 -0.782,0.179 -0.718,0.184 -0.723,0.18 -0.719,0.238 -0.781,0.18 -0.719,0.179 -0.719,0.242 -0.718,0.18 -0.723,0.18 -0.777,0.238 -0.723,0.18 -0.719,0.242 -0.719,0.18 -0.722,0.179 -0.778,0.239 -0.722,0.179 -0.719,0.242 -0.719,0.18 -0.722,0.238 -0.719,0.243 -0.781,0.179 -0.719,0.239 -0.719,0.179 -0.723,0.242 -0.718,0.239 -0.719,0.179 -0.723,0.243 -0.777,0.238 -0.723,0.18 -0.718,0.242 -0.719,0.238 -0.723,0.18 -0.719,0.242 z"
         id="path2410" />
    </clipPath>
    <clipPath
       clipPathUnits="userSpaceOnUse"
       id="clipPath2422">
      <path
         d="M 0,0 H 792 V 675 H 0 Z"
         id="path2420" />
    </clipPath>
    <clipPath
       clipPathUnits="userSpaceOnUse"
       id="clipPath2434">
      <path
         d="M 0,0 H 792 V 675 H 0 Z"
         id="path2432" />
    </clipPath>
    <clipPath
       clipPathUnits="userSpaceOnUse"
       id="clipPath2444">
      <path
         d="M 1,23 H 308.781 V 309 H 1 Z"
         id="path2442" />
    </clipPath>
    <clipPath
       clipPathUnits="userSpaceOnUse"
       id="clipPath2454">
      <path
         d="M 0,0 H 792 V 675 H 0 Z"
         id="path2452" />
    </clipPath>
    <clipPath
       clipPathUnits="userSpaceOnUse"
       id="clipPath2464">
      <path
         d="M 1,23 H 308.781 V 309 H 1 Z"
         id="path2462" />
    </clipPath>
    <clipPath
       clipPathUnits="userSpaceOnUse"
       id="clipPath2610">
      <path
         d="M 7,34 H 303 V 298 H 7 Z"
         id="path2608" />
    </clipPath>
    <clipPath
       clipPathUnits="userSpaceOnUse"
       id="clipPath2620">
      <path
         d="M 0,0 H 792 V 675 H 0 Z"
         id="path2618" />
    </clipPath>
    <clipPath
       clipPathUnits="userSpaceOnUse"
       id="clipPath2630">
      <path
         d="M 7,34 H 303 V 298 H 7 Z"
         id="path2628" />
    </clipPath>
    <clipPath
       clipPathUnits="userSpaceOnUse"
       id="clipPath2636">
      <path
         d="m 81.984,297.398 8.758,-2.582 5.223,-1.437 7.258,-1.801 9.722,-2.101 8.578,-1.559 8.219,-1.32 10.32,-1.258 7.864,-0.723 7.078,-0.48 8.699,-0.36 9.539,-0.121 7.5,0.121 11.223,0.539 7.859,0.661 7.86,0.839 8.64,1.141 7.738,1.262 6.961,1.32 9.36,2.039 2.82,0.66 59.102,-242.281 -11.102,-2.578 -9.66,-2.039 -11.16,-2.16 -11.219,-1.922 -9.781,-1.5 -12.059,-1.559 -12.84,-1.383 -16.679,-1.378 -13.621,-0.719 -14.461,-0.36 -13.68,-0.062 -0.719,0.062 h -3.058 l -0.782,0.059 h -2.281 l -0.719,0.059 h -1.558 l -0.723,0.062 h -1.558 l -0.719,0.059 h -0.781 l -0.782,0.058 h -0.718 l -0.782,0.063 h -0.777 l -0.723,0.058 h -0.777 l -0.781,0.063 h -0.719 l -0.781,0.058 h -0.782 l -0.718,0.059 -0.782,0.063 h -0.718 l -1.563,0.117 h -0.719 l -0.781,0.062 -0.777,0.059 -0.723,0.058 h -0.777 l -0.781,0.063 -0.719,0.059 -0.781,0.058 -0.782,0.063 h -0.718 l -0.782,0.058 -0.718,0.063 -0.782,0.058 -0.777,0.059 -0.723,0.062 -0.777,0.059 -0.781,0.059 -0.719,0.062 -0.781,0.059 -0.719,0.058 -0.781,0.063 -0.782,0.058 -0.718,0.063 -0.782,0.058 -0.777,0.059 -0.723,0.063 -0.777,0.117 -0.723,0.062 -0.777,0.059 -0.781,0.058 -0.719,0.063 -0.781,0.117 -0.719,0.063 -0.781,0.058 -0.781,0.121 -0.719,0.059 -0.781,0.062 -0.719,0.059 -0.781,0.121 -0.778,0.059 -0.722,0.121 -0.778,0.058 -0.722,0.063 -0.778,0.117 -0.722,0.063 -0.778,0.117 -0.781,0.062 -0.719,0.117 -0.781,0.063 -0.719,0.117 -0.781,0.121 -0.719,0.063 -0.781,0.117 -0.781,0.062 -0.719,0.118 -0.781,0.121 -0.719,0.058 -0.781,0.121 -0.719,0.121 -0.781,0.059 -0.719,0.121 -0.781,0.121 -0.719,0.117 -0.781,0.122 -0.778,0.058 -0.722,0.121 -0.778,0.121 -0.722,0.121 -0.778,0.118 -0.722,0.121 -0.778,0.121 -0.722,0.121 -0.778,0.117 -0.722,0.063 -0.778,0.117 -0.722,0.121 -0.778,0.18 -0.722,0.121 -0.778,0.121 -0.722,0.117 -0.778,0.121 -0.722,0.121 -0.778,0.117 -0.722,0.121 -0.778,0.121 -0.722,0.122 -0.778,0.179 -0.722,0.117 -0.778,0.122 -0.722,0.121 -0.719,0.179 -0.781,0.121 -0.719,0.118 -0.781,0.179 -0.719,0.121 -0.781,0.121 -0.719,0.18 -0.781,0.121 -0.719,0.117 -0.719,0.18 -0.781,0.121 -0.719,0.18 -0.781,0.121 -0.719,0.18 -0.781,0.121 -0.719,0.179 -0.722,0.122 -0.778,0.179 -0.722,0.117 -0.778,0.18 -0.722,0.121 -0.719,0.18 -0.781,0.18 -0.719,0.121 -0.719,0.179 -0.781,0.18 -0.719,0.121 -0.781,0.18 -0.719,0.18 -0.723,0.179 -0.777,0.121 -0.723,0.18 -0.718,0.18 -0.782,0.179 -1.437,0.36 -0.781,0.121 -0.719,0.18 -0.723,0.179 -0.777,0.18 -0.723,0.18 -0.718,0.179 -0.782,0.184 -1.437,0.359 -0.781,0.18 -0.719,0.18 -0.723,0.179 -0.719,0.18 -0.781,0.18 -0.719,0.242 -1.437,0.359 -0.781,0.18 -0.719,0.18 -0.723,0.179 -0.718,0.239 -0.782,0.179 -0.718,0.184 -0.723,0.18 -0.719,0.238 -0.781,0.18 -0.719,0.179 -0.719,0.242 -0.718,0.18 -0.723,0.18 -0.777,0.238 -0.723,0.18 -0.719,0.242 -0.719,0.18 -0.722,0.179 -0.778,0.239 -0.722,0.179 -0.719,0.242 -0.719,0.18 -0.722,0.238 -0.719,0.243 -0.781,0.179 -0.719,0.239 -0.719,0.179 -0.723,0.242 -0.718,0.239 -0.719,0.179 -0.723,0.243 -0.777,0.238 -0.723,0.18 -0.718,0.242 -0.719,0.238 -0.723,0.18 -0.719,0.242 z"
         id="path2634" />
    </clipPath>
    <clipPath
       clipPathUnits="userSpaceOnUse"
       id="clipPath2646">
      <path
         d="M 0,0 H 792 V 675 H 0 Z"
         id="path2644" />
    </clipPath>
    <clipPath
       clipPathUnits="userSpaceOnUse"
       id="clipPath2658">
      <path
         d="M 0,0 H 792 V 675 H 0 Z"
         id="path2656" />
    </clipPath>
    <clipPath
       clipPathUnits="userSpaceOnUse"
       id="clipPath2978">
      <path
         d="M 7,34 H 303 V 298 H 7 Z"
         id="path2976" />
    </clipPath>
    <clipPath
       clipPathUnits="userSpaceOnUse"
       id="clipPath2988">
      <path
         d="M 0,0 H 792 V 675 H 0 Z"
         id="path2986" />
    </clipPath>
    <clipPath
       clipPathUnits="userSpaceOnUse"
       id="clipPath2998">
      <path
         d="M 7,34 H 303 V 298 H 7 Z"
         id="path2996" />
    </clipPath>
    <clipPath
       clipPathUnits="userSpaceOnUse"
       id="clipPath3004">
      <path
         d="m 81.984,297.398 8.758,-2.582 5.223,-1.437 7.258,-1.801 9.722,-2.101 8.578,-1.559 8.219,-1.32 10.32,-1.258 7.864,-0.723 7.078,-0.48 8.699,-0.36 9.539,-0.121 7.5,0.121 11.223,0.539 7.859,0.661 7.86,0.839 8.64,1.141 7.738,1.262 6.961,1.32 9.36,2.039 2.82,0.66 59.102,-242.281 -11.102,-2.578 -9.66,-2.039 -11.16,-2.16 -11.219,-1.922 -9.781,-1.5 -12.059,-1.559 -12.84,-1.383 -16.679,-1.378 -13.621,-0.719 -14.461,-0.36 -13.68,-0.062 -0.719,0.062 h -3.058 l -0.782,0.059 h -2.281 l -0.719,0.059 h -1.558 l -0.723,0.062 h -1.558 l -0.719,0.059 h -0.781 l -0.782,0.058 h -0.718 l -0.782,0.063 h -0.777 l -0.723,0.058 h -0.777 l -0.781,0.063 h -0.719 l -0.781,0.058 h -0.782 l -0.718,0.059 -0.782,0.063 h -0.718 l -1.563,0.117 h -0.719 l -0.781,0.062 -0.777,0.059 -0.723,0.058 h -0.777 l -0.781,0.063 -0.719,0.059 -0.781,0.058 -0.782,0.063 h -0.718 l -0.782,0.058 -0.718,0.063 -0.782,0.058 -0.777,0.059 -0.723,0.062 -0.777,0.059 -0.781,0.059 -0.719,0.062 -0.781,0.059 -0.719,0.058 -0.781,0.063 -0.782,0.058 -0.718,0.063 -0.782,0.058 -0.777,0.059 -0.723,0.063 -0.777,0.117 -0.723,0.062 -0.777,0.059 -0.781,0.058 -0.719,0.063 -0.781,0.117 -0.719,0.063 -0.781,0.058 -0.781,0.121 -0.719,0.059 -0.781,0.062 -0.719,0.059 -0.781,0.121 -0.778,0.059 -0.722,0.121 -0.778,0.058 -0.722,0.063 -0.778,0.117 -0.722,0.063 -0.778,0.117 -0.781,0.062 -0.719,0.117 -0.781,0.063 -0.719,0.117 -0.781,0.121 -0.719,0.063 -0.781,0.117 -0.781,0.062 -0.719,0.118 -0.781,0.121 -0.719,0.058 -0.781,0.121 -0.719,0.121 -0.781,0.059 -0.719,0.121 -0.781,0.121 -0.719,0.117 -0.781,0.122 -0.778,0.058 -0.722,0.121 -0.778,0.121 -0.722,0.121 -0.778,0.118 -0.722,0.121 -0.778,0.121 -0.722,0.121 -0.778,0.117 -0.722,0.063 -0.778,0.117 -0.722,0.121 -0.778,0.18 -0.722,0.121 -0.778,0.121 -0.722,0.117 -0.778,0.121 -0.722,0.121 -0.778,0.117 -0.722,0.121 -0.778,0.121 -0.722,0.122 -0.778,0.179 -0.722,0.117 -0.778,0.122 -0.722,0.121 -0.719,0.179 -0.781,0.121 -0.719,0.118 -0.781,0.179 -0.719,0.121 -0.781,0.121 -0.719,0.18 -0.781,0.121 -0.719,0.117 -0.719,0.18 -0.781,0.121 -0.719,0.18 -0.781,0.121 -0.719,0.18 -0.781,0.121 -0.719,0.179 -0.722,0.122 -0.778,0.179 -0.722,0.117 -0.778,0.18 -0.722,0.121 -0.719,0.18 -0.781,0.18 -0.719,0.121 -0.719,0.179 -0.781,0.18 -0.719,0.121 -0.781,0.18 -0.719,0.18 -0.723,0.179 -0.777,0.121 -0.723,0.18 -0.718,0.18 -0.782,0.179 -1.437,0.36 -0.781,0.121 -0.719,0.18 -0.723,0.179 -0.777,0.18 -0.723,0.18 -0.718,0.179 -0.782,0.184 -1.437,0.359 -0.781,0.18 -0.719,0.18 -0.723,0.179 -0.719,0.18 -0.781,0.18 -0.719,0.242 -1.437,0.359 -0.781,0.18 -0.719,0.18 -0.723,0.179 -0.718,0.239 -0.782,0.179 -0.718,0.184 -0.723,0.18 -0.719,0.238 -0.781,0.18 -0.719,0.179 -0.719,0.242 -0.718,0.18 -0.723,0.18 -0.777,0.238 -0.723,0.18 -0.719,0.242 -0.719,0.18 -0.722,0.179 -0.778,0.239 -0.722,0.179 -0.719,0.242 -0.719,0.18 -0.722,0.238 -0.719,0.243 -0.781,0.179 -0.719,0.239 -0.719,0.179 -0.723,0.242 -0.718,0.239 -0.719,0.179 -0.723,0.243 -0.777,0.238 -0.723,0.18 -0.718,0.242 -0.719,0.238 -0.723,0.18 -0.719,0.242 z"
         id="path3002" />
    </clipPath>
    <clipPath
       clipPathUnits="userSpaceOnUse"
       id="clipPath3014">
      <path
         d="M 0,0 H 792 V 675 H 0 Z"
         id="path3012" />
    </clipPath>
    <clipPath
       clipPathUnits="userSpaceOnUse"
       id="clipPath3026">
      <path
         d="M 0,0 H 792 V 675 H 0 Z"
         id="path3024" />
    </clipPath>
    <clipPath
       clipPathUnits="userSpaceOnUse"
       id="clipPath3838">
      <path
         d="M 0,0 H 792 V 675 H 0 Z"
         id="path3836" />
    </clipPath>
    <clipPath
       clipPathUnits="userSpaceOnUse"
       id="clipPath3884">
      <path
         d="M 7.523,34.297 H 302.304 V 297.399 H 7.523 Z"
         id="path3882" />
    </clipPath>
    <clipPath
       clipPathUnits="userSpaceOnUse"
       id="clipPath3894">
      <path
         d="M 0,0 H 792 V 675 H 0 Z"
         id="path3892" />
    </clipPath>
    <clipPath
       clipPathUnits="userSpaceOnUse"
       id="clipPath3906">
      <path
         d="M 0,0 H 792 V 675 H 0 Z"
         id="path3904" />
    </clipPath>
    <clipPath
       clipPathUnits="userSpaceOnUse"
       id="clipPath3920">
      <path
         d="M 0,27.734 H 309.641 V 306.011 H 0 Z"
         id="path3918" />
    </clipPath>
    <clipPath
       clipPathUnits="userSpaceOnUse"
       id="clipPath3930">
      <path
         d="M 0,0 H 792 V 675 H 0 Z"
         id="path3928" />
    </clipPath>
    <clipPath
       clipPathUnits="userSpaceOnUse"
       id="clipPath3942">
      <path
         d="M 0,0 H 792 V 675 H 0 Z"
         id="path3940" />
    </clipPath>
    <clipPath
       clipPathUnits="userSpaceOnUse"
       id="clipPath3954">
      <path
         d="M 0,0 H 792 V 675 H 0 Z"
         id="path3952" />
    </clipPath>
    <clipPath
       clipPathUnits="userSpaceOnUse"
       id="clipPath3964">
      <path
         d="M 0,0 H 327.855 V 675 H 0 Z"
         id="path3962" />
    </clipPath>
    <clipPath
       clipPathUnits="userSpaceOnUse"
       id="clipPath3974">
      <path
         d="M 0,0 H 792 V 675 H 0 Z"
         id="path3972" />
    </clipPath>
    <clipPath
       clipPathUnits="userSpaceOnUse"
       id="clipPath3986">
      <path
         d="M 0,0 H 792 V 675 H 0 Z"
         id="path3984" />
    </clipPath>
    <clipPath
       clipPathUnits="userSpaceOnUse"
       id="clipPath3998">
      <path
         d="M 0,0 H 792 V 675 H 0 Z"
         id="path3996" />
    </clipPath>
    <clipPath
       clipPathUnits="userSpaceOnUse"
       id="clipPath4016">
      <path
         d="M 642.789,130.09 H 792 V 514.594 H 642.789 Z"
         id="path4014" />
    </clipPath>
    <clipPath
       clipPathUnits="userSpaceOnUse"
       id="clipPath4026">
      <path
         d="M 0,0 H 792 V 675 H 0 Z"
         id="path4024" />
    </clipPath>
    <clipPath
       clipPathUnits="userSpaceOnUse"
       id="clipPath4038">
      <path
         d="M 0,0 H 792 V 675 H 0 Z"
         id="path4036" />
    </clipPath>
    <clipPath
       clipPathUnits="userSpaceOnUse"
       id="clipPath4048">
      <path
         d="M 612.016,0 H 792 V 514.594 H 612.016 Z"
         id="path4046" />
    </clipPath>
    <clipPath
       clipPathUnits="userSpaceOnUse"
       id="clipPath4058">
      <path
         d="M 0,0 H 792 V 675 H 0 Z"
         id="path4056" />
    </clipPath>
    <clipPath
       clipPathUnits="userSpaceOnUse"
       id="clipPath4070">
      <path
         d="M 0,0 H 792 V 675 H 0 Z"
         id="path4068" />
    </clipPath>
    <clipPath
       clipPathUnits="userSpaceOnUse"
       id="clipPath4084">
      <path
         d="M 2.32,26.234 H 314.14 V 304.511 H 2.32 Z"
         id="path4082" />
    </clipPath>
    <clipPath
       clipPathUnits="userSpaceOnUse"
       id="clipPath4094">
      <path
         d="M 0,0 H 792 V 675 H 0 Z"
         id="path4092" />
    </clipPath>
    <clipPath
       clipPathUnits="userSpaceOnUse"
       id="clipPath4106">
      <path
         d="M 0,0 H 792 V 675 H 0 Z"
         id="path4104" />
    </clipPath>
    <clipPath
       clipPathUnits="userSpaceOnUse"
       id="clipPath4118">
      <path
         d="M 0,0 H 792 V 675 H 0 Z"
         id="path4116" />
    </clipPath>
    <clipPath
       clipPathUnits="userSpaceOnUse"
       id="clipPath4128">
      <path
         d="M 0,0 H 327.855 V 675 H 0 Z"
         id="path4126" />
    </clipPath>
    <clipPath
       clipPathUnits="userSpaceOnUse"
       id="clipPath4138">
      <path
         d="M 0,0 H 792 V 675 H 0 Z"
         id="path4136" />
    </clipPath>
    <clipPath
       clipPathUnits="userSpaceOnUse"
       id="clipPath4150">
      <path
         d="M 0,0 H 792 V 675 H 0 Z"
         id="path4148" />
    </clipPath>
    <clipPath
       clipPathUnits="userSpaceOnUse"
       id="clipPath4162">
      <path
         d="M 0,0 H 792 V 675 H 0 Z"
         id="path4160" />
    </clipPath>
    <clipPath
       clipPathUnits="userSpaceOnUse"
       id="clipPath4184">
      <path
         d="M 42.848,0 H 327.856 V 202.875 H 42.848 Z"
         id="path4182" />
    </clipPath>
    <clipPath
       clipPathUnits="userSpaceOnUse"
       id="clipPath4194">
      <path
         d="M 0,0 H 792 V 675 H 0 Z"
         id="path4192" />
    </clipPath>
    <clipPath
       clipPathUnits="userSpaceOnUse"
       id="clipPath4206">
      <path
         d="M 0,0 H 792 V 675 H 0 Z"
         id="path4204" />
    </clipPath>
    <clipPath
       clipPathUnits="userSpaceOnUse"
       id="clipPath4218">
      <path
         d="M 0,0 H 792 V 675 H 0 Z"
         id="path4216" />
    </clipPath>
    <clipPath
       clipPathUnits="userSpaceOnUse"
       id="clipPath4228">
      <path
         d="M 0,0 H 327.855 V 675 H 0 Z"
         id="path4226" />
    </clipPath>
    <clipPath
       clipPathUnits="userSpaceOnUse"
       id="clipPath4238">
      <path
         d="M 0,0 H 792 V 675 H 0 Z"
         id="path4236" />
    </clipPath>
    <clipPath
       clipPathUnits="userSpaceOnUse"
       id="clipPath4250">
      <path
         d="M 0,0 H 792 V 675 H 0 Z"
         id="path4248" />
    </clipPath>
    <clipPath
       clipPathUnits="userSpaceOnUse"
       id="clipPath4262">
      <path
         d="M 0,0 H 792 V 675 H 0 Z"
         id="path4260" />
    </clipPath>
    <clipPath
       clipPathUnits="userSpaceOnUse"
       id="clipPath4276">
      <path
         d="M 52.48,0 H 327.855 V 235.812 H 52.48 Z"
         id="path4274" />
    </clipPath>
    <clipPath
       clipPathUnits="userSpaceOnUse"
       id="clipPath4286">
      <path
         d="M 0,0 H 792 V 675 H 0 Z"
         id="path4284" />
    </clipPath>
    <clipPath
       clipPathUnits="userSpaceOnUse"
       id="clipPath4298">
      <path
         d="M 0,0 H 792 V 675 H 0 Z"
         id="path4296" />
    </clipPath>
    <clipPath
       clipPathUnits="userSpaceOnUse"
       id="clipPath4310">
      <path
         d="M 0,0 H 792 V 675 H 0 Z"
         id="path4308" />
    </clipPath>
    <clipPath
       clipPathUnits="userSpaceOnUse"
       id="clipPath4320">
      <path
         d="M 0,0 H 327.855 V 675 H 0 Z"
         id="path4318" />
    </clipPath>
    <clipPath
       clipPathUnits="userSpaceOnUse"
       id="clipPath4330">
      <path
         d="M 0,0 H 792 V 675 H 0 Z"
         id="path4328" />
    </clipPath>
    <clipPath
       clipPathUnits="userSpaceOnUse"
       id="clipPath4342">
      <path
         d="M 0,0 H 792 V 675 H 0 Z"
         id="path4340" />
    </clipPath>
    <clipPath
       clipPathUnits="userSpaceOnUse"
       id="clipPath4354">
      <path
         d="M 0,0 H 792 V 675 H 0 Z"
         id="path4352" />
    </clipPath>
    <clipPath
       clipPathUnits="userSpaceOnUse"
       id="clipPath4368">
      <path
         d="m 42,320 h 254.664 v 11 H 42 Z"
         id="path4366" />
    </clipPath>
    <clipPath
       clipPathUnits="userSpaceOnUse"
       id="clipPath4378">
      <path
         d="M 0,0 H 792 V 675 H 0 Z"
         id="path4376" />
    </clipPath>
    <clipPath
       clipPathUnits="userSpaceOnUse"
       id="clipPath4388">
      <path
         d="m 42,320 h 254.664 v 11 H 42 Z"
         id="path4386" />
    </clipPath>
    <clipPath
       clipPathUnits="userSpaceOnUse"
       id="clipPath4516">
      <path
         d="m 395.844,501.277 h 385.5 v 158.762 h -385.5 z"
         id="path4514" />
    </clipPath>
    <clipPath
       clipPathUnits="userSpaceOnUse"
       id="clipPath4526">
      <path
         d="M 0,0 H 792 V 675 H 0 Z"
         id="path4524" />
    </clipPath>
    <clipPath
       clipPathUnits="userSpaceOnUse"
       id="clipPath4538">
      <path
         d="M 0,0 H 792 V 675 H 0 Z"
         id="path4536" />
    </clipPath>
    <clipPath
       clipPathUnits="userSpaceOnUse"
       id="clipPath30954">
      <path
         d="m 395.844,501.277 h 385.5 v 158.762 h -385.5 z"
         id="path30952" />
    </clipPath>
    <clipPath
       clipPathUnits="userSpaceOnUse"
       id="clipPath30962">
      <path
         d="M 0,0 H 792 V 675 H 0 Z"
         id="path30960" />
    </clipPath>
    <clipPath
       clipPathUnits="userSpaceOnUse"
       id="clipPath30966">
      <path
         d="M 0,0 H 792 V 675 H 0 Z"
         id="path30964" />
    </clipPath>
    <clipPath
       clipPathUnits="userSpaceOnUse"
       id="clipPath37958">
      <path
         d="m 395.844,335.617 h 385.5 v 158.762 h -385.5 z"
         id="path37956" />
    </clipPath>
    <clipPath
       clipPathUnits="userSpaceOnUse"
       id="clipPath37968">
      <path
         d="M 0,0 H 792 V 675 H 0 Z"
         id="path37966" />
    </clipPath>
    <clipPath
       clipPathUnits="userSpaceOnUse"
       id="clipPath37980">
      <path
         d="M 0,0 H 792 V 675 H 0 Z"
         id="path37978" />
    </clipPath>
    <clipPath
       clipPathUnits="userSpaceOnUse"
       id="clipPath59380">
      <path
         d="m 395.844,335.617 h 385.5 v 158.762 h -385.5 z"
         id="path59378" />
    </clipPath>
    <clipPath
       clipPathUnits="userSpaceOnUse"
       id="clipPath59388">
      <path
         d="M 0,0 H 792 V 675 H 0 Z"
         id="path59386" />
    </clipPath>
    <clipPath
       clipPathUnits="userSpaceOnUse"
       id="clipPath59392">
      <path
         d="M 0,0 H 792 V 675 H 0 Z"
         id="path59390" />
    </clipPath>
    <clipPath
       clipPathUnits="userSpaceOnUse"
       id="clipPath65556">
      <path
         d="m 395.844,169.957 h 385.5 v 158.762 h -385.5 z"
         id="path65554" />
    </clipPath>
    <clipPath
       clipPathUnits="userSpaceOnUse"
       id="clipPath65566">
      <path
         d="M 0,0 H 792 V 675 H 0 Z"
         id="path65564" />
    </clipPath>
    <clipPath
       clipPathUnits="userSpaceOnUse"
       id="clipPath65578">
      <path
         d="M 0,0 H 792 V 675 H 0 Z"
         id="path65576" />
    </clipPath>
    <clipPath
       clipPathUnits="userSpaceOnUse"
       id="clipPath86462">
      <path
         d="m 395.844,169.957 h 385.5 v 158.762 h -385.5 z"
         id="path86460" />
    </clipPath>
    <clipPath
       clipPathUnits="userSpaceOnUse"
       id="clipPath86470">
      <path
         d="M 0,0 H 792 V 675 H 0 Z"
         id="path86468" />
    </clipPath>
    <clipPath
       clipPathUnits="userSpaceOnUse"
       id="clipPath86474">
      <path
         d="M 0,0 H 792 V 675 H 0 Z"
         id="path86472" />
    </clipPath>
    <clipPath
       clipPathUnits="userSpaceOnUse"
       id="clipPath92594">
      <path
         d="m 395.844,4.297 h 385.5 v 158.762 h -385.5 z"
         id="path92592" />
    </clipPath>
    <clipPath
       clipPathUnits="userSpaceOnUse"
       id="clipPath92604">
      <path
         d="M 0,0 H 792 V 675 H 0 Z"
         id="path92602" />
    </clipPath>
    <clipPath
       clipPathUnits="userSpaceOnUse"
       id="clipPath92616">
      <path
         d="M 0,0 H 792 V 675 H 0 Z"
         id="path92614" />
    </clipPath>
    <clipPath
       clipPathUnits="userSpaceOnUse"
       id="clipPath123468">
      <path
         d="m 395.844,4.297 h 385.5 v 158.762 h -385.5 z"
         id="path123466" />
    </clipPath>
    <clipPath
       clipPathUnits="userSpaceOnUse"
       id="clipPath123476">
      <path
         d="M 0,0 H 792 V 675 H 0 Z"
         id="path123474" />
    </clipPath>
    <clipPath
       clipPathUnits="userSpaceOnUse"
       id="clipPath123480">
      <path
         d="M 0,0 H 792 V 675 H 0 Z"
         id="path123478" />
    </clipPath>
    <clipPath
       clipPathUnits="userSpaceOnUse"
       id="clipPath131414">
      <path
         d="M 0,93.555 H 503.086 V 675 H 0 Z"
         id="path131412" />
    </clipPath>
    <clipPath
       clipPathUnits="userSpaceOnUse"
       id="clipPath131424">
      <path
         d="M 0,0 H 792 V 675 H 0 Z"
         id="path131422" />
    </clipPath>
    <clipPath
       clipPathUnits="userSpaceOnUse"
       id="clipPath131436">
      <path
         d="M 0,0 H 792 V 675 H 0 Z"
         id="path131434" />
    </clipPath>
    <clipPath
       clipPathUnits="userSpaceOnUse"
       id="clipPath131448">
      <path
         d="M 0,0 H 792 V 675 H 0 Z"
         id="path131446" />
    </clipPath>
    <clipPath
       clipPathUnits="userSpaceOnUse"
       id="clipPath131464">
      <path
         d="M 15.117,34.637 H 524.648 V 622.645 H 15.117 Z"
         id="path131462" />
    </clipPath>
    <clipPath
       clipPathUnits="userSpaceOnUse"
       id="clipPath131474">
      <path
         d="M 0,0 H 792 V 675 H 0 Z"
         id="path131472" />
    </clipPath>
    <clipPath
       clipPathUnits="userSpaceOnUse"
       id="clipPath131486">
      <path
         d="M 0,0 H 792 V 675 H 0 Z"
         id="path131484" />
    </clipPath>
    <clipPath
       clipPathUnits="userSpaceOnUse"
       id="clipPath131496">
      <path
         d="M 15.117,0 H 792 V 622.645 H 15.117 Z"
         id="path131494" />
    </clipPath>
    <clipPath
       clipPathUnits="userSpaceOnUse"
       id="clipPath131506">
      <path
         d="M 0,0 H 792 V 675 H 0 Z"
         id="path131504" />
    </clipPath>
    <clipPath
       clipPathUnits="userSpaceOnUse"
       id="clipPath131518">
      <path
         d="M 0,0 H 792 V 675 H 0 Z"
         id="path131516" />
    </clipPath>
    <clipPath
       clipPathUnits="userSpaceOnUse"
       id="clipPath131532">
      <path
         d="M 0,0 H 435.875 V 535.938 H 0 Z"
         id="path131530" />
    </clipPath>
    <clipPath
       clipPathUnits="userSpaceOnUse"
       id="clipPath131542">
      <path
         d="M 0,0 H 792 V 675 H 0 Z"
         id="path131540" />
    </clipPath>
    <clipPath
       clipPathUnits="userSpaceOnUse"
       id="clipPath131554">
      <path
         d="M 0,0 H 792 V 675 H 0 Z"
         id="path131552" />
    </clipPath>
    <clipPath
       clipPathUnits="userSpaceOnUse"
       id="clipPath131564">
      <path
         d="M 0,0 H 735.344 V 535.938 H 0 Z"
         id="path131562" />
    </clipPath>
    <clipPath
       clipPathUnits="userSpaceOnUse"
       id="clipPath131574">
      <path
         d="M 0,0 H 792 V 675 H 0 Z"
         id="path131572" />
    </clipPath>
    <clipPath
       clipPathUnits="userSpaceOnUse"
       id="clipPath131586">
      <path
         d="M 0,0 H 792 V 675 H 0 Z"
         id="path131584" />
    </clipPath>
    <clipPath
       clipPathUnits="userSpaceOnUse"
       id="clipPath340669">
      <path
         d="m 395.844,4.297 h 385.5 v 158.762 h -385.5 z"
         id="path340667" />
    </clipPath>
    <clipPath
       clipPathUnits="userSpaceOnUse"
       id="clipPath340677">
      <path
         d="M 0,0 H 792 V 675 H 0 Z"
         id="path340675" />
    </clipPath>
  </defs>
  <sodipodi:namedview
     id="namedview562"
     pagecolor="#ffffff"
     bordercolor="#000000"
     borderopacity="0.25"
     inkscape:showpageshadow="2"
     inkscape:pageopacity="0.0"
     inkscape:pagecheckerboard="0"
     inkscape:deskcolor="#d1d1d1"
     showgrid="false"
     inkscape:zoom="0.86979091"
     inkscape:cx="331.11406"
     inkscape:cy="171.30554"
     inkscape:window-width="1920"
     inkscape:window-height="1011"
     inkscape:window-x="0"
     inkscape:window-y="0"
     inkscape:window-maximized="1"
     inkscape:current-layer="g568">
    <inkscape:page
       x="0"
       y="0"
       id="page566"
       width="348.57202"
       height="221.25874"
       inkscape:export-filename="fig8.png"
       inkscape:export-xdpi="360"
       inkscape:export-ydpi="360" />
  </sodipodi:namedview>
  <g
     id="g568"
     inkscape:groupmode="layer"
     inkscape:label="Page 1"
     transform="matrix(1.3333333,0,0,1.3333333,-197.52418,-253.77361)">
    <path
       style="fill:none;stroke:#000000;stroke-width:1.8;stroke-dasharray:none;marker-start:url(#Arrow5);marker-end:url(#Arrow5)"
       d="m 402.27511,330.43002 c 0,0 -189.31678,1.77508 -194.35908,0 V 216.8386"
       id="path407543" />
    <path
       style="fill:#cccccc;stroke:#000000;stroke-width:1.8;stroke-dasharray:none"
       id="path408428"
       sodipodi:type="arc"
       sodipodi:cx="239.93477"
       sodipodi:cy="300.09653"
       sodipodi:rx="5.1332383"
       sodipodi:ry="5.1332383"
       sodipodi:start="0.79971232"
       sodipodi:end="0.7963334"
       sodipodi:open="true"
       sodipodi:arc-type="arc"
       d="m 243.51219,303.77786 a 5.1332383,5.1332383 0 0 1 -7.25573,-0.1008 5.1332383,5.1332383 0 0 1 0.0947,-7.25581 5.1332383,5.1332383 0 0 1 7.25589,0.0885 5.1332383,5.1332383 0 0 1 -0.0824,7.25596" />
    <path
       style="fill:#cccccc;stroke:#000000;stroke-width:1.8;stroke-dasharray:none"
       id="path408428-6"
       sodipodi:type="arc"
       sodipodi:cx="314.66434"
       sodipodi:cy="259.98837"
       sodipodi:rx="5.1332383"
       sodipodi:ry="5.1332383"
       sodipodi:start="0.79971232"
       sodipodi:end="0.7963334"
       sodipodi:open="true"
       sodipodi:arc-type="arc"
       d="m 318.24176,263.6697 a 5.1332383,5.1332383 0 0 1 -7.25573,-0.1008 5.1332383,5.1332383 0 0 1 0.0947,-7.25581 5.1332383,5.1332383 0 0 1 7.25589,0.0885 5.1332383,5.1332383 0 0 1 -0.0824,7.25596" />
    <path
       style="fill:#cccccc;stroke:#0000ff;stroke-width:1.8;stroke-dasharray:none"
       d="M 210.56349,317.28705 343.97715,245.92022"
       id="path408511" />
    <text
       xml:space="preserve"
       transform="matrix(0,-0.75000002,0.75000002,0,279.94585,397.81521)"
       id="text408619"
       style="font-size:24px;font-family:'Linux Biolinum';-inkscape-font-specification:'Linux Biolinum';text-align:center;white-space:pre;shape-inside:url(#rect408621);display:inline;fill:#cccccc;stroke:#0000ff;stroke-width:2.4;stroke-dasharray:none"><tspan
         x="119.89453"
         y="-158.97913"
         id="tspan1267"><tspan
           style="fill:#000000;stroke:none"
           id="tspan1265">Surface 
</tspan></tspan><tspan
         x="94.253906"
         y="-128.97913"
         id="tspan1271"><tspan
           style="fill:#000000;stroke:none"
           id="tspan1269">displacement</tspan></tspan></text>
    <text
       xml:space="preserve"
       transform="matrix(0.75000002,0,0,0.75000002,100.74116,454.45296)"
       id="text408683"
       style="font-size:24px;font-family:'Linux Biolinum';-inkscape-font-specification:'Linux Biolinum';text-align:center;white-space:pre;shape-inside:url(#rect408685);display:inline;fill:#000000;stroke:none;stroke-width:2.4;stroke-dasharray:none"><tspan
         x="219.51367"
         y="-131.13928"
         id="tspan1273">Time</tspan></text>
    <path
       style="fill:none;stroke:#000000;stroke-width:1.8;stroke-dasharray:none;marker-start:url(#marker408748)"
       d="m 268.208,280.35401 c -1.26195,-20.82926 0.37962,-35.15229 30.83311,-49.43269"
       id="path408695"
       sodipodi:nodetypes="cc" />
    <text
       xml:space="preserve"
       transform="matrix(0.75000002,0,0,0.75000002,93.314132,200.36778)"
       id="text408792"
       style="font-size:24px;font-family:'Linux Biolinum';-inkscape-font-specification:'Linux Biolinum';text-align:center;white-space:pre;shape-inside:url(#rect408794);display:inline;fill:none;stroke:#000000;stroke-width:2.4;stroke-dasharray:none"><tspan
         x="194.44434"
         y="3.3743877"
         id="tspan1277"><tspan
           style="fill:#000000;stroke:none"
           id="tspan1275">Use the rate to correct </tspan></tspan><tspan
         x="234.9502"
         y="33.374388"
         id="tspan1281"><tspan
           style="fill:#000000;stroke:none"
           id="tspan1279">GPS velocities</tspan></tspan></text>
  </g>
</svg>
